<svg xmlns="http://www.w3.org/2000/svg" viewBox="0 0 512 512" role="img" aria-label="MuleSoft AES">
  <!-- Shield outline (Font Awesome Free 6 "shield" solid — CC BY 4.0), AES knocked out -->
  <path fill="currentColor" fill-rule="evenodd" d="M256 0c4.6 0 9.2 1 13.4 2.9L457.7 82.8c22 9.3 38.4 31 38.3 57.2c-.5 99.2-41.3 280.7-213.6 363.2c-16.7 8-36.1 8-52.8 0C57.3 420.7 16.5 239.2 16 140c-.1-26.2 16.3-47.9 38.3-57.2L242.7 2.9C246.8 1 251.4 0 256 0zM92 232l38-104 26 0 38 104-26 0-7-21-36 0-7 21-26 0zm41-44l22 0-11-33-11 33zM222 232l0-104 70 0 0 22-45 0 0 18 41 0 0 21-41 0 0 21 47 0 0 22-72 0zM310 200l25 0c0 8 6 13 17 13 10 0 15-4 15-10 0-7-7-9-19-12-19-4-36-10-36-32 0-19 15-31 38-31 24 0 38 12 39 32l-24 0c-1-7-6-11-15-11-8 0-13 4-13 9 0 7 7 8 19 11 19 5 37 10 37 33 0 20-16 32-41 32-26 0-41-13-42-34z"/>
</svg>
