<svg xmlns="http://www.w3.org/2000/svg" viewBox="0 0 640 512" role="img" aria-label="Base64">
  <defs>
    <linearGradient id="b64Grad" x1="0" y1="0" x2="0" y2="1">
      <stop offset="0" stop-color="#A78BFA"/>
      <stop offset="1" stop-color="#7C3AED"/>
    </linearGradient>
  </defs>
  <!-- Font Awesome Free 6 "code" (solid) — CC BY 4.0 -->
  <path fill="url(#b64Grad)" d="M392.8 1.2c-17-4.9-34.7 5-39.6 22l-128 448c-4.9 17 5 34.7 22 39.6s34.7-5 39.6-22l128-448c4.9-17-5-34.7-22-39.6zM457.4 81.4c-12.5 12.5-12.5 32.8 0 45.3L530.7 200l-73.4 73.4c-12.5 12.5-12.5 32.8 0 45.3s32.8 12.5 45.3 0l96-96c12.5-12.5 12.5-32.8 0-45.3l-96-96c-12.5-12.5-32.8-12.5-45.3 0zm-306.7 0c-12.5-12.5-32.8-12.5-45.3 0l-96 96c-12.5 12.5-12.5 32.8 0 45.3l96 96c12.5 12.5 32.8 12.5 45.3 0s12.5-32.8 0-45.3L77.3 200l73.4-73.4c12.5-12.5 12.5-32.8 0-45.3z"/>
</svg>
