<svg xmlns="http://www.w3.org/2000/svg" width="256" height="256" viewBox="0 0 256 256">
  <defs>
    <linearGradient id="bg" x1="0" y1="0" x2="1" y2="1">
      <stop offset="0" stop-color="#0A2540"/>
      <stop offset="0.55" stop-color="#0A4FA0"/>
      <stop offset="1" stop-color="#0091E6"/>
    </linearGradient>
    <linearGradient id="shield" x1="0" y1="0" x2="0" y2="1">
      <stop offset="0" stop-color="#FFFFFF"/>
      <stop offset="1" stop-color="#BDE9FF"/>
    </linearGradient>
  </defs>
  <rect width="256" height="256" rx="56" fill="url(#bg)"/>
  <!-- Font Awesome Free 6 "shield-halved" (solid) — CC BY 4.0 -->
  <svg x="68" y="40" width="120" height="120" viewBox="0 0 512 512">
    <path fill="url(#shield)" d="M256 0c4.6 0 9.2 1 13.4 2.9L457.7 82.8c22 9.3 38.4 31 38.3 57.2c-.5 99.2-41.3 280.7-213.6 363.2c-16.7 8-36.1 8-52.8 0C57.3 420.7 16.5 239.2 16 140c-.1-26.2 16.3-47.9 38.3-57.2L242.7 2.9C246.8 1 251.4 0 256 0z"/>
  </svg>
  <text x="128" y="210" font-family="Arial, Helvetica, sans-serif" font-size="44" font-weight="700" fill="#FFFFFF" text-anchor="middle" letter-spacing="3">AES</text>
</svg>
